<mxfile host="app.diagrams.net" agent="Mozilla/5.0 (X11; Linux x86_64; rv:130.0) Gecko/20100101 Firefox/130.0" version="24.7.16">
  <diagram name="Page-1" id="tMKwrCwcSogvI-PuknFF">
    <mxGraphModel dx="2497" dy="1909" grid="0" gridSize="10" guides="1" tooltips="1" connect="1" arrows="1" fold="1" page="1" pageScale="1" pageWidth="850" pageHeight="1100" math="0" shadow="0">
      <root>
        <mxCell id="0" />
        <mxCell id="1" parent="0" />
        <mxCell id="kEzwi6B4QK5POM8SHYto-4" value="Просмотр транзакций " style="ellipse;whiteSpace=wrap;html=1;align=center;" vertex="1" parent="1">
          <mxGeometry x="-323" y="-360" width="178" height="77" as="geometry" />
        </mxCell>
        <mxCell id="kEzwi6B4QK5POM8SHYto-6" value="Изменение транзакций" style="ellipse;whiteSpace=wrap;html=1;align=center;" vertex="1" parent="1">
          <mxGeometry x="473" y="-29" width="153" height="77" as="geometry" />
        </mxCell>
        <mxCell id="kEzwi6B4QK5POM8SHYto-7" value="&lt;div&gt;Инициализация&lt;/div&gt;&lt;div&gt;&amp;nbsp;транзакций&lt;/div&gt;" style="ellipse;whiteSpace=wrap;html=1;align=center;" vertex="1" parent="1">
          <mxGeometry x="-242" y="-66" width="113" height="77" as="geometry" />
        </mxCell>
        <mxCell id="kEzwi6B4QK5POM8SHYto-8" value="Удаление транзакций" style="ellipse;whiteSpace=wrap;html=1;align=center;" vertex="1" parent="1">
          <mxGeometry x="316" y="-73" width="149" height="77" as="geometry" />
        </mxCell>
        <mxCell id="kEzwi6B4QK5POM8SHYto-21" value="Просмотр&amp;nbsp;пользователей " style="ellipse;whiteSpace=wrap;html=1;align=center;" vertex="1" parent="1">
          <mxGeometry x="-202" y="13" width="156" height="77" as="geometry" />
        </mxCell>
        <mxCell id="kEzwi6B4QK5POM8SHYto-22" value="Изменение пользователей" style="ellipse;whiteSpace=wrap;html=1;align=center;" vertex="1" parent="1">
          <mxGeometry x="255" y="565" width="178" height="77" as="geometry" />
        </mxCell>
        <mxCell id="kEzwi6B4QK5POM8SHYto-23" value="Создание пользователей" style="ellipse;whiteSpace=wrap;html=1;align=center;" vertex="1" parent="1">
          <mxGeometry x="-304" y="326" width="178" height="77" as="geometry" />
        </mxCell>
        <mxCell id="kEzwi6B4QK5POM8SHYto-24" value="Удаление пользователей" style="ellipse;whiteSpace=wrap;html=1;align=center;" vertex="1" parent="1">
          <mxGeometry x="-218" y="235" width="178" height="77" as="geometry" />
        </mxCell>
        <mxCell id="kEzwi6B4QK5POM8SHYto-25" value="Просмотр ролей " style="ellipse;whiteSpace=wrap;html=1;align=center;" vertex="1" parent="1">
          <mxGeometry x="-93" y="330" width="178" height="77" as="geometry" />
        </mxCell>
        <mxCell id="kEzwi6B4QK5POM8SHYto-26" value="Изменение ролей" style="ellipse;whiteSpace=wrap;html=1;align=center;" vertex="1" parent="1">
          <mxGeometry x="523" y="314" width="136" height="77" as="geometry" />
        </mxCell>
        <mxCell id="kEzwi6B4QK5POM8SHYto-27" value="Создание ролей" style="ellipse;whiteSpace=wrap;html=1;align=center;" vertex="1" parent="1">
          <mxGeometry x="336" y="480" width="131" height="77" as="geometry" />
        </mxCell>
        <mxCell id="kEzwi6B4QK5POM8SHYto-28" value="Удаление ролей" style="ellipse;whiteSpace=wrap;html=1;align=center;" vertex="1" parent="1">
          <mxGeometry x="329" y="390" width="132" height="77" as="geometry" />
        </mxCell>
        <mxCell id="kEzwi6B4QK5POM8SHYto-30" value="Просмотр продуктов" style="ellipse;whiteSpace=wrap;html=1;align=center;" vertex="1" parent="1">
          <mxGeometry x="158" y="-332" width="178" height="77" as="geometry" />
        </mxCell>
        <mxCell id="kEzwi6B4QK5POM8SHYto-34" value="Изменение продуктов" style="ellipse;whiteSpace=wrap;html=1;align=center;" vertex="1" parent="1">
          <mxGeometry x="-38.5" y="13" width="114" height="77" as="geometry" />
        </mxCell>
        <mxCell id="kEzwi6B4QK5POM8SHYto-35" value="Создание продуктов" style="ellipse;whiteSpace=wrap;html=1;align=center;" vertex="1" parent="1">
          <mxGeometry x="33" y="609" width="159" height="77" as="geometry" />
        </mxCell>
        <mxCell id="kEzwi6B4QK5POM8SHYto-36" value="Удаление продуктов" style="ellipse;whiteSpace=wrap;html=1;align=center;" vertex="1" parent="1">
          <mxGeometry x="-145" y="124" width="178" height="77" as="geometry" />
        </mxCell>
        <mxCell id="kEzwi6B4QK5POM8SHYto-37" value="Просмотр типов продуктов" style="ellipse;whiteSpace=wrap;html=1;align=center;" vertex="1" parent="1">
          <mxGeometry x="-78" y="-501" width="178" height="77" as="geometry" />
        </mxCell>
        <mxCell id="kEzwi6B4QK5POM8SHYto-38" value="Изменение типов продуктов" style="ellipse;whiteSpace=wrap;html=1;align=center;" vertex="1" parent="1">
          <mxGeometry x="-23" y="426" width="143" height="71" as="geometry" />
        </mxCell>
        <mxCell id="kEzwi6B4QK5POM8SHYto-39" value="Создание типов продуктов" style="ellipse;whiteSpace=wrap;html=1;align=center;" vertex="1" parent="1">
          <mxGeometry x="-25" y="511" width="151" height="77" as="geometry" />
        </mxCell>
        <mxCell id="kEzwi6B4QK5POM8SHYto-40" value="Удаление&amp;nbsp;типов продуктов" style="ellipse;whiteSpace=wrap;html=1;align=center;" vertex="1" parent="1">
          <mxGeometry x="195" y="438" width="114" height="77" as="geometry" />
        </mxCell>
        <mxCell id="kEzwi6B4QK5POM8SHYto-42" value="Просмотр&amp;nbsp;смарт - контрактов " style="ellipse;whiteSpace=wrap;html=1;align=center;" vertex="1" parent="1">
          <mxGeometry x="485" y="-123" width="178" height="77" as="geometry" />
        </mxCell>
        <mxCell id="kEzwi6B4QK5POM8SHYto-43" value="Изменение смарт - контрактов" style="ellipse;whiteSpace=wrap;html=1;align=center;" vertex="1" parent="1">
          <mxGeometry x="380" y="309" width="137" height="77" as="geometry" />
        </mxCell>
        <mxCell id="kEzwi6B4QK5POM8SHYto-44" value="Создание смарт - контрактов" style="ellipse;whiteSpace=wrap;html=1;align=center;" vertex="1" parent="1">
          <mxGeometry x="523" y="237" width="178" height="77" as="geometry" />
        </mxCell>
        <mxCell id="kEzwi6B4QK5POM8SHYto-45" value="Удаление смарт - контрактов" style="ellipse;whiteSpace=wrap;html=1;align=center;" vertex="1" parent="1">
          <mxGeometry x="656" y="-45" width="178" height="77" as="geometry" />
        </mxCell>
        <mxCell id="kEzwi6B4QK5POM8SHYto-50" value="Просмотр запросов " style="ellipse;whiteSpace=wrap;html=1;align=center;" vertex="1" parent="1">
          <mxGeometry x="108" y="-442" width="178" height="77" as="geometry" />
        </mxCell>
        <mxCell id="kEzwi6B4QK5POM8SHYto-51" value="Изменение запросов" style="ellipse;whiteSpace=wrap;html=1;align=center;" vertex="1" parent="1">
          <mxGeometry x="289" y="-235" width="110" height="77" as="geometry" />
        </mxCell>
        <mxCell id="kEzwi6B4QK5POM8SHYto-52" value="Создание запросов" style="ellipse;whiteSpace=wrap;html=1;align=center;" vertex="1" parent="1">
          <mxGeometry x="-318" y="-160" width="178" height="77" as="geometry" />
        </mxCell>
        <mxCell id="kEzwi6B4QK5POM8SHYto-53" value="Удаление запросов" style="ellipse;whiteSpace=wrap;html=1;align=center;" vertex="1" parent="1">
          <mxGeometry x="467" y="164" width="157" height="73" as="geometry" />
        </mxCell>
        <mxCell id="kEzwi6B4QK5POM8SHYto-54" value="Регистрация" style="ellipse;whiteSpace=wrap;html=1;align=center;" vertex="1" parent="1">
          <mxGeometry x="22" y="-150" width="113" height="77" as="geometry" />
        </mxCell>
        <mxCell id="kEzwi6B4QK5POM8SHYto-55" value="Авторизация" style="ellipse;whiteSpace=wrap;html=1;align=center;" vertex="1" parent="1">
          <mxGeometry x="143" y="-230" width="122" height="77" as="geometry" />
        </mxCell>
        <mxCell id="kEzwi6B4QK5POM8SHYto-60" value="Создание транзакций" style="ellipse;whiteSpace=wrap;html=1;align=center;" vertex="1" parent="1">
          <mxGeometry x="513" y="74" width="135" height="77" as="geometry" />
        </mxCell>
        <mxCell id="kEzwi6B4QK5POM8SHYto-61" value="" style="endArrow=classic;html=1;rounded=0;entryX=0.041;entryY=0.729;entryDx=0;entryDy=0;entryPerimeter=0;" edge="1" parent="1" source="kEzwi6B4QK5POM8SHYto-93" target="kEzwi6B4QK5POM8SHYto-8">
          <mxGeometry width="50" height="50" relative="1" as="geometry">
            <mxPoint x="271" y="176" as="sourcePoint" />
            <mxPoint x="321" y="126" as="targetPoint" />
          </mxGeometry>
        </mxCell>
        <mxCell id="kEzwi6B4QK5POM8SHYto-62" value="" style="endArrow=classic;html=1;rounded=0;entryX=0.009;entryY=0.691;entryDx=0;entryDy=0;entryPerimeter=0;" edge="1" parent="1" source="kEzwi6B4QK5POM8SHYto-93" target="kEzwi6B4QK5POM8SHYto-6">
          <mxGeometry width="50" height="50" relative="1" as="geometry">
            <mxPoint x="265" y="181" as="sourcePoint" />
            <mxPoint x="390" y="166" as="targetPoint" />
          </mxGeometry>
        </mxCell>
        <mxCell id="kEzwi6B4QK5POM8SHYto-63" value="" style="endArrow=classic;html=1;rounded=0;exitX=0.9;exitY=0.5;exitDx=0;exitDy=0;exitPerimeter=0;entryX=0.042;entryY=0.614;entryDx=0;entryDy=0;entryPerimeter=0;" edge="1" parent="1" target="kEzwi6B4QK5POM8SHYto-60">
          <mxGeometry width="50" height="50" relative="1" as="geometry">
            <mxPoint x="265" y="181" as="sourcePoint" />
            <mxPoint x="494" y="213" as="targetPoint" />
          </mxGeometry>
        </mxCell>
        <mxCell id="kEzwi6B4QK5POM8SHYto-65" value="" style="endArrow=classic;html=1;rounded=0;" edge="1" parent="1" source="kEzwi6B4QK5POM8SHYto-93" target="kEzwi6B4QK5POM8SHYto-45">
          <mxGeometry width="50" height="50" relative="1" as="geometry">
            <mxPoint x="265" y="181" as="sourcePoint" />
            <mxPoint x="335" y="31" as="targetPoint" />
          </mxGeometry>
        </mxCell>
        <mxCell id="kEzwi6B4QK5POM8SHYto-66" value="" style="endArrow=classic;html=1;rounded=0;entryX=0;entryY=1;entryDx=0;entryDy=0;" edge="1" parent="1" source="kEzwi6B4QK5POM8SHYto-93" target="kEzwi6B4QK5POM8SHYto-42">
          <mxGeometry width="50" height="50" relative="1" as="geometry">
            <mxPoint x="265" y="181" as="sourcePoint" />
            <mxPoint x="335" y="31" as="targetPoint" />
          </mxGeometry>
        </mxCell>
        <mxCell id="kEzwi6B4QK5POM8SHYto-67" value="" style="endArrow=classic;html=1;rounded=0;exitX=0.9;exitY=0.5;exitDx=0;exitDy=0;exitPerimeter=0;entryX=0;entryY=0.5;entryDx=0;entryDy=0;" edge="1" parent="1" target="kEzwi6B4QK5POM8SHYto-53">
          <mxGeometry width="50" height="50" relative="1" as="geometry">
            <mxPoint x="265" y="181" as="sourcePoint" />
            <mxPoint x="377" y="247" as="targetPoint" />
          </mxGeometry>
        </mxCell>
        <mxCell id="kEzwi6B4QK5POM8SHYto-68" value="" style="endArrow=classic;html=1;rounded=0;exitX=0.9;exitY=0.5;exitDx=0;exitDy=0;exitPerimeter=0;" edge="1" parent="1" target="kEzwi6B4QK5POM8SHYto-44">
          <mxGeometry width="50" height="50" relative="1" as="geometry">
            <mxPoint x="265" y="181" as="sourcePoint" />
            <mxPoint x="335" y="190" as="targetPoint" />
          </mxGeometry>
        </mxCell>
        <mxCell id="kEzwi6B4QK5POM8SHYto-69" value="" style="endArrow=classic;html=1;rounded=0;exitX=0.9;exitY=0.5;exitDx=0;exitDy=0;exitPerimeter=0;" edge="1" parent="1" target="kEzwi6B4QK5POM8SHYto-43">
          <mxGeometry width="50" height="50" relative="1" as="geometry">
            <mxPoint x="265" y="181" as="sourcePoint" />
            <mxPoint x="422" y="262" as="targetPoint" />
          </mxGeometry>
        </mxCell>
        <mxCell id="kEzwi6B4QK5POM8SHYto-70" value="" style="endArrow=classic;html=1;rounded=0;" edge="1" parent="1" source="kEzwi6B4QK5POM8SHYto-93" target="kEzwi6B4QK5POM8SHYto-26">
          <mxGeometry width="50" height="50" relative="1" as="geometry">
            <mxPoint x="265" y="181" as="sourcePoint" />
            <mxPoint x="115" y="400" as="targetPoint" />
          </mxGeometry>
        </mxCell>
        <mxCell id="kEzwi6B4QK5POM8SHYto-71" value="" style="endArrow=classic;html=1;rounded=0;entryX=0.5;entryY=0;entryDx=0;entryDy=0;" edge="1" parent="1" target="kEzwi6B4QK5POM8SHYto-28">
          <mxGeometry width="50" height="50" relative="1" as="geometry">
            <mxPoint x="266" y="186" as="sourcePoint" />
            <mxPoint x="210" y="291" as="targetPoint" />
          </mxGeometry>
        </mxCell>
        <mxCell id="kEzwi6B4QK5POM8SHYto-73" value="" style="endArrow=classic;html=1;rounded=0;" edge="1" parent="1" source="kEzwi6B4QK5POM8SHYto-93" target="kEzwi6B4QK5POM8SHYto-40">
          <mxGeometry width="50" height="50" relative="1" as="geometry">
            <mxPoint x="253" y="211" as="sourcePoint" />
            <mxPoint x="109" y="319" as="targetPoint" />
          </mxGeometry>
        </mxCell>
        <mxCell id="kEzwi6B4QK5POM8SHYto-75" value="" style="endArrow=classic;html=1;rounded=0;exitX=0.617;exitY=0.133;exitDx=0;exitDy=0;exitPerimeter=0;" edge="1" parent="1" target="kEzwi6B4QK5POM8SHYto-22">
          <mxGeometry width="50" height="50" relative="1" as="geometry">
            <mxPoint x="260.02" y="214.98999999999978" as="sourcePoint" />
            <mxPoint x="88" y="310" as="targetPoint" />
          </mxGeometry>
        </mxCell>
        <mxCell id="kEzwi6B4QK5POM8SHYto-76" value="" style="endArrow=classic;html=1;rounded=0;entryX=0.092;entryY=0.286;entryDx=0;entryDy=0;entryPerimeter=0;" edge="1" parent="1" source="kEzwi6B4QK5POM8SHYto-93" target="kEzwi6B4QK5POM8SHYto-27">
          <mxGeometry width="50" height="50" relative="1" as="geometry">
            <mxPoint x="249" y="211" as="sourcePoint" />
            <mxPoint x="364" y="351" as="targetPoint" />
          </mxGeometry>
        </mxCell>
        <mxCell id="kEzwi6B4QK5POM8SHYto-77" value="" style="endArrow=classic;html=1;rounded=0;entryX=0.453;entryY=0.037;entryDx=0;entryDy=0;entryPerimeter=0;" edge="1" parent="1">
          <mxGeometry width="50" height="50" relative="1" as="geometry">
            <mxPoint x="235" y="217" as="sourcePoint" />
            <mxPoint x="24.778999999999996" y="433.62699999999995" as="targetPoint" />
          </mxGeometry>
        </mxCell>
        <mxCell id="kEzwi6B4QK5POM8SHYto-78" value="" style="endArrow=classic;html=1;rounded=0;entryX=1;entryY=0;entryDx=0;entryDy=0;" edge="1" parent="1" source="kEzwi6B4QK5POM8SHYto-93" target="kEzwi6B4QK5POM8SHYto-39">
          <mxGeometry width="50" height="50" relative="1" as="geometry">
            <mxPoint x="256" y="213" as="sourcePoint" />
            <mxPoint x="119" y="255" as="targetPoint" />
          </mxGeometry>
        </mxCell>
        <mxCell id="kEzwi6B4QK5POM8SHYto-79" value="" style="endArrow=classic;html=1;rounded=0;entryX=0.655;entryY=0.041;entryDx=0;entryDy=0;entryPerimeter=0;" edge="1" parent="1" source="kEzwi6B4QK5POM8SHYto-93" target="kEzwi6B4QK5POM8SHYto-35">
          <mxGeometry width="50" height="50" relative="1" as="geometry">
            <mxPoint x="253" y="211" as="sourcePoint" />
            <mxPoint x="47" y="233" as="targetPoint" />
          </mxGeometry>
        </mxCell>
        <mxCell id="kEzwi6B4QK5POM8SHYto-80" value="" style="endArrow=classic;html=1;rounded=0;exitX=0;exitY=0.75;exitDx=0;exitDy=0;" edge="1" parent="1" target="kEzwi6B4QK5POM8SHYto-25">
          <mxGeometry width="50" height="50" relative="1" as="geometry">
            <mxPoint x="229" y="196" as="sourcePoint" />
            <mxPoint x="236" y="59" as="targetPoint" />
          </mxGeometry>
        </mxCell>
        <mxCell id="kEzwi6B4QK5POM8SHYto-81" value="" style="endArrow=classic;html=1;rounded=0;exitX=0.1;exitY=0.5;exitDx=0;exitDy=0;exitPerimeter=0;entryX=0.91;entryY=0.325;entryDx=0;entryDy=0;entryPerimeter=0;" edge="1" parent="1" target="kEzwi6B4QK5POM8SHYto-23">
          <mxGeometry width="50" height="50" relative="1" as="geometry">
            <mxPoint x="233" y="181" as="sourcePoint" />
            <mxPoint x="134" y="90" as="targetPoint" />
          </mxGeometry>
        </mxCell>
        <mxCell id="kEzwi6B4QK5POM8SHYto-82" value="" style="endArrow=classic;html=1;rounded=0;exitX=0;exitY=0.75;exitDx=0;exitDy=0;entryX=1;entryY=0.5;entryDx=0;entryDy=0;" edge="1" parent="1" target="kEzwi6B4QK5POM8SHYto-24">
          <mxGeometry width="50" height="50" relative="1" as="geometry">
            <mxPoint x="229" y="196" as="sourcePoint" />
            <mxPoint x="136" y="137" as="targetPoint" />
          </mxGeometry>
        </mxCell>
        <mxCell id="kEzwi6B4QK5POM8SHYto-83" value="" style="endArrow=classic;html=1;rounded=0;exitX=0;exitY=0.75;exitDx=0;exitDy=0;" edge="1" parent="1" target="kEzwi6B4QK5POM8SHYto-36">
          <mxGeometry width="50" height="50" relative="1" as="geometry">
            <mxPoint x="229" y="196" as="sourcePoint" />
            <mxPoint x="7" y="67" as="targetPoint" />
          </mxGeometry>
        </mxCell>
        <mxCell id="kEzwi6B4QK5POM8SHYto-89" value="" style="endArrow=classic;html=1;rounded=0;entryX=0.388;entryY=0.96;entryDx=0;entryDy=0;entryPerimeter=0;" edge="1" parent="1" source="kEzwi6B4QK5POM8SHYto-93" target="kEzwi6B4QK5POM8SHYto-54">
          <mxGeometry width="50" height="50" relative="1" as="geometry">
            <mxPoint x="233" y="181" as="sourcePoint" />
            <mxPoint x="60" y="-80" as="targetPoint" />
          </mxGeometry>
        </mxCell>
        <mxCell id="kEzwi6B4QK5POM8SHYto-90" value="" style="endArrow=classic;html=1;rounded=0;entryX=0.566;entryY=0.979;entryDx=0;entryDy=0;entryPerimeter=0;" edge="1" parent="1" source="kEzwi6B4QK5POM8SHYto-93" target="kEzwi6B4QK5POM8SHYto-55">
          <mxGeometry width="50" height="50" relative="1" as="geometry">
            <mxPoint x="233" y="181" as="sourcePoint" />
            <mxPoint x="52" y="-47" as="targetPoint" />
          </mxGeometry>
        </mxCell>
        <mxCell id="kEzwi6B4QK5POM8SHYto-93" value="Администратор" style="shape=umlActor;verticalLabelPosition=bottom;verticalAlign=top;html=1;outlineConnect=0;" vertex="1" parent="1">
          <mxGeometry x="235" y="157" width="30" height="60" as="geometry" />
        </mxCell>
        <mxCell id="kEzwi6B4QK5POM8SHYto-96" value="Менеджер" style="shape=umlActor;verticalLabelPosition=bottom;verticalAlign=top;html=1;outlineConnect=0;" vertex="1" parent="1">
          <mxGeometry x="-8" y="-375" width="30" height="60" as="geometry" />
        </mxCell>
        <mxCell id="kEzwi6B4QK5POM8SHYto-97" value="Пользователь" style="shape=umlActor;verticalLabelPosition=bottom;verticalAlign=top;html=1;outlineConnect=0;" vertex="1" parent="1">
          <mxGeometry x="-148" y="-255" width="30" height="60" as="geometry" />
        </mxCell>
        <mxCell id="kEzwi6B4QK5POM8SHYto-100" value="" style="endArrow=classic;html=1;rounded=0;exitX=0;exitY=0.3333333333333333;exitDx=0;exitDy=0;exitPerimeter=0;entryX=0.64;entryY=0.983;entryDx=0;entryDy=0;entryPerimeter=0;" edge="1" parent="1" source="kEzwi6B4QK5POM8SHYto-93" target="kEzwi6B4QK5POM8SHYto-51">
          <mxGeometry width="50" height="50" relative="1" as="geometry">
            <mxPoint x="13" y="15" as="sourcePoint" />
            <mxPoint x="63" y="-35" as="targetPoint" />
          </mxGeometry>
        </mxCell>
        <mxCell id="kEzwi6B4QK5POM8SHYto-101" value="" style="endArrow=classic;html=1;rounded=0;exitX=0;exitY=0.3333333333333333;exitDx=0;exitDy=0;exitPerimeter=0;" edge="1" parent="1" source="kEzwi6B4QK5POM8SHYto-93" target="kEzwi6B4QK5POM8SHYto-21">
          <mxGeometry width="50" height="50" relative="1" as="geometry">
            <mxPoint x="-113" y="-12" as="sourcePoint" />
            <mxPoint x="-63" y="-62" as="targetPoint" />
          </mxGeometry>
        </mxCell>
        <mxCell id="kEzwi6B4QK5POM8SHYto-102" value="" style="endArrow=classic;html=1;rounded=0;exitX=0;exitY=0.3333333333333333;exitDx=0;exitDy=0;exitPerimeter=0;entryX=0.717;entryY=0.931;entryDx=0;entryDy=0;entryPerimeter=0;" edge="1" parent="1" source="kEzwi6B4QK5POM8SHYto-93" target="kEzwi6B4QK5POM8SHYto-34">
          <mxGeometry width="50" height="50" relative="1" as="geometry">
            <mxPoint x="-62" y="-2" as="sourcePoint" />
            <mxPoint x="-12" y="-52" as="targetPoint" />
          </mxGeometry>
        </mxCell>
        <mxCell id="kEzwi6B4QK5POM8SHYto-115" value="" style="endArrow=classic;html=1;rounded=0;entryX=0.404;entryY=0.964;entryDx=0;entryDy=0;entryPerimeter=0;" edge="1" parent="1" target="kEzwi6B4QK5POM8SHYto-8">
          <mxGeometry width="50" height="50" relative="1" as="geometry">
            <mxPoint x="266" y="174" as="sourcePoint" />
            <mxPoint x="-70" y="-69" as="targetPoint" />
          </mxGeometry>
        </mxCell>
        <mxCell id="kEzwi6B4QK5POM8SHYto-124" value="" style="endArrow=classic;html=1;rounded=0;entryX=1;entryY=0.5;entryDx=0;entryDy=0;" edge="1" parent="1" source="kEzwi6B4QK5POM8SHYto-93" target="kEzwi6B4QK5POM8SHYto-7">
          <mxGeometry width="50" height="50" relative="1" as="geometry">
            <mxPoint x="-178" y="-22" as="sourcePoint" />
            <mxPoint x="-128" y="-72" as="targetPoint" />
            <Array as="points">
              <mxPoint x="-41" y="-71" />
            </Array>
          </mxGeometry>
        </mxCell>
        <mxCell id="kEzwi6B4QK5POM8SHYto-130" value="" style="endArrow=classic;html=1;rounded=0;exitX=0.5;exitY=0.5;exitDx=0;exitDy=0;exitPerimeter=0;entryX=0;entryY=1;entryDx=0;entryDy=0;" edge="1" parent="1" source="kEzwi6B4QK5POM8SHYto-97" target="kEzwi6B4QK5POM8SHYto-55">
          <mxGeometry width="50" height="50" relative="1" as="geometry">
            <mxPoint x="-1" y="-91" as="sourcePoint" />
            <mxPoint x="49" y="-141" as="targetPoint" />
          </mxGeometry>
        </mxCell>
        <mxCell id="kEzwi6B4QK5POM8SHYto-131" value="" style="endArrow=classic;html=1;rounded=0;exitX=1;exitY=1;exitDx=0;exitDy=0;exitPerimeter=0;entryX=0.354;entryY=0.022;entryDx=0;entryDy=0;entryPerimeter=0;" edge="1" parent="1" source="kEzwi6B4QK5POM8SHYto-96" target="kEzwi6B4QK5POM8SHYto-54">
          <mxGeometry width="50" height="50" relative="1" as="geometry">
            <mxPoint x="30" y="-80" as="sourcePoint" />
            <mxPoint x="80" y="-130" as="targetPoint" />
          </mxGeometry>
        </mxCell>
        <mxCell id="kEzwi6B4QK5POM8SHYto-132" value="" style="endArrow=classic;html=1;rounded=0;entryX=0.02;entryY=0.406;entryDx=0;entryDy=0;entryPerimeter=0;" edge="1" parent="1" target="kEzwi6B4QK5POM8SHYto-55">
          <mxGeometry width="50" height="50" relative="1" as="geometry">
            <mxPoint x="28" y="-310" as="sourcePoint" />
            <mxPoint x="-22" y="-81" as="targetPoint" />
          </mxGeometry>
        </mxCell>
        <mxCell id="kEzwi6B4QK5POM8SHYto-133" value="" style="endArrow=classic;html=1;rounded=0;exitX=0.5;exitY=0.5;exitDx=0;exitDy=0;exitPerimeter=0;entryX=0.081;entryY=0.246;entryDx=0;entryDy=0;entryPerimeter=0;" edge="1" parent="1" source="kEzwi6B4QK5POM8SHYto-97" target="kEzwi6B4QK5POM8SHYto-54">
          <mxGeometry width="50" height="50" relative="1" as="geometry">
            <mxPoint x="-154" y="-42" as="sourcePoint" />
            <mxPoint x="-104" y="-92" as="targetPoint" />
          </mxGeometry>
        </mxCell>
        <mxCell id="kEzwi6B4QK5POM8SHYto-134" value="" style="endArrow=classic;html=1;rounded=0;exitX=0.5;exitY=0.5;exitDx=0;exitDy=0;exitPerimeter=0;entryX=0.556;entryY=0;entryDx=0;entryDy=0;entryPerimeter=0;" edge="1" parent="1" source="kEzwi6B4QK5POM8SHYto-97" target="kEzwi6B4QK5POM8SHYto-52">
          <mxGeometry width="50" height="50" relative="1" as="geometry">
            <mxPoint x="-189" y="-72" as="sourcePoint" />
            <mxPoint x="-139" y="-122" as="targetPoint" />
          </mxGeometry>
        </mxCell>
        <mxCell id="kEzwi6B4QK5POM8SHYto-135" value="" style="endArrow=classic;html=1;rounded=0;exitX=0.25;exitY=0.1;exitDx=0;exitDy=0;exitPerimeter=0;entryX=1;entryY=0.5;entryDx=0;entryDy=0;" edge="1" parent="1" source="kEzwi6B4QK5POM8SHYto-93" target="kEzwi6B4QK5POM8SHYto-52">
          <mxGeometry width="50" height="50" relative="1" as="geometry">
            <mxPoint x="-306" y="-19" as="sourcePoint" />
            <mxPoint x="-7" y="-126" as="targetPoint" />
            <Array as="points">
              <mxPoint x="50" y="-56" />
            </Array>
          </mxGeometry>
        </mxCell>
        <mxCell id="kEzwi6B4QK5POM8SHYto-136" value="" style="endArrow=classic;html=1;rounded=0;exitX=0;exitY=0.3333333333333333;exitDx=0;exitDy=0;exitPerimeter=0;entryX=0.5;entryY=1;entryDx=0;entryDy=0;" edge="1" parent="1" source="kEzwi6B4QK5POM8SHYto-97" target="kEzwi6B4QK5POM8SHYto-4">
          <mxGeometry width="50" height="50" relative="1" as="geometry">
            <mxPoint x="-376" y="-208" as="sourcePoint" />
            <mxPoint x="-326" y="-258" as="targetPoint" />
          </mxGeometry>
        </mxCell>
        <mxCell id="kEzwi6B4QK5POM8SHYto-138" value="" style="endArrow=classic;html=1;rounded=0;exitX=0.5;exitY=0.5;exitDx=0;exitDy=0;exitPerimeter=0;entryX=0;entryY=1;entryDx=0;entryDy=0;" edge="1" parent="1" source="kEzwi6B4QK5POM8SHYto-96" target="kEzwi6B4QK5POM8SHYto-50">
          <mxGeometry width="50" height="50" relative="1" as="geometry">
            <mxPoint x="-242" y="-453" as="sourcePoint" />
            <mxPoint x="-192" y="-503" as="targetPoint" />
          </mxGeometry>
        </mxCell>
        <mxCell id="kEzwi6B4QK5POM8SHYto-139" value="" style="endArrow=classic;html=1;rounded=0;exitX=0.75;exitY=0.1;exitDx=0;exitDy=0;exitPerimeter=0;entryX=0.29;entryY=0.905;entryDx=0;entryDy=0;entryPerimeter=0;" edge="1" parent="1" source="kEzwi6B4QK5POM8SHYto-97" target="kEzwi6B4QK5POM8SHYto-37">
          <mxGeometry width="50" height="50" relative="1" as="geometry">
            <mxPoint x="-307" y="-379" as="sourcePoint" />
            <mxPoint x="-38" y="-423" as="targetPoint" />
          </mxGeometry>
        </mxCell>
        <mxCell id="kEzwi6B4QK5POM8SHYto-140" value="" style="endArrow=classic;html=1;rounded=0;entryX=0.946;entryY=0.693;entryDx=0;entryDy=0;entryPerimeter=0;" edge="1" parent="1" source="kEzwi6B4QK5POM8SHYto-96" target="kEzwi6B4QK5POM8SHYto-4">
          <mxGeometry width="50" height="50" relative="1" as="geometry">
            <mxPoint x="-214" y="-406" as="sourcePoint" />
            <mxPoint x="-164" y="-456" as="targetPoint" />
          </mxGeometry>
        </mxCell>
        <mxCell id="kEzwi6B4QK5POM8SHYto-142" value="" style="endArrow=classic;html=1;rounded=0;exitX=1;exitY=0.3333333333333333;exitDx=0;exitDy=0;exitPerimeter=0;entryX=0.567;entryY=0.994;entryDx=0;entryDy=0;entryPerimeter=0;" edge="1" parent="1" source="kEzwi6B4QK5POM8SHYto-97" target="kEzwi6B4QK5POM8SHYto-50">
          <mxGeometry width="50" height="50" relative="1" as="geometry">
            <mxPoint x="-313" y="-425" as="sourcePoint" />
            <mxPoint x="-263" y="-475" as="targetPoint" />
          </mxGeometry>
        </mxCell>
        <mxCell id="kEzwi6B4QK5POM8SHYto-143" value="" style="endArrow=classic;html=1;rounded=0;exitX=0.25;exitY=0.1;exitDx=0;exitDy=0;exitPerimeter=0;entryX=0.358;entryY=1.044;entryDx=0;entryDy=0;entryPerimeter=0;" edge="1" parent="1" source="kEzwi6B4QK5POM8SHYto-93" target="kEzwi6B4QK5POM8SHYto-4">
          <mxGeometry width="50" height="50" relative="1" as="geometry">
            <mxPoint x="-384" y="-240" as="sourcePoint" />
            <mxPoint x="-334" y="-290" as="targetPoint" />
            <Array as="points">
              <mxPoint x="-173" y="-183" />
            </Array>
          </mxGeometry>
        </mxCell>
        <mxCell id="kEzwi6B4QK5POM8SHYto-144" value="" style="endArrow=classic;html=1;rounded=0;" edge="1" parent="1" target="kEzwi6B4QK5POM8SHYto-30">
          <mxGeometry width="50" height="50" relative="1" as="geometry">
            <mxPoint x="245" y="156" as="sourcePoint" />
            <mxPoint x="-323" y="-208" as="targetPoint" />
            <Array as="points">
              <mxPoint x="279" y="-235" />
            </Array>
          </mxGeometry>
        </mxCell>
        <mxCell id="kEzwi6B4QK5POM8SHYto-145" value="" style="endArrow=classic;html=1;rounded=0;exitX=0.5;exitY=0;exitDx=0;exitDy=0;exitPerimeter=0;entryX=0;entryY=1;entryDx=0;entryDy=0;" edge="1" parent="1" source="kEzwi6B4QK5POM8SHYto-93" target="kEzwi6B4QK5POM8SHYto-50">
          <mxGeometry width="50" height="50" relative="1" as="geometry">
            <mxPoint x="-298" y="-211" as="sourcePoint" />
            <mxPoint x="69" y="-403" as="targetPoint" />
            <Array as="points">
              <mxPoint x="49" y="-361" />
            </Array>
          </mxGeometry>
        </mxCell>
        <mxCell id="kEzwi6B4QK5POM8SHYto-146" value="" style="endArrow=classic;html=1;rounded=0;exitX=0.25;exitY=0.1;exitDx=0;exitDy=0;exitPerimeter=0;entryX=0.733;entryY=0.95;entryDx=0;entryDy=0;entryPerimeter=0;" edge="1" parent="1" source="kEzwi6B4QK5POM8SHYto-93" target="kEzwi6B4QK5POM8SHYto-37">
          <mxGeometry width="50" height="50" relative="1" as="geometry">
            <mxPoint x="-403" y="41" as="sourcePoint" />
            <mxPoint x="-353" y="-9" as="targetPoint" />
          </mxGeometry>
        </mxCell>
        <mxCell id="kEzwi6B4QK5POM8SHYto-147" value="" style="endArrow=classic;html=1;rounded=0;exitX=1;exitY=1;exitDx=0;exitDy=0;exitPerimeter=0;entryX=0.088;entryY=0.772;entryDx=0;entryDy=0;entryPerimeter=0;" edge="1" parent="1" source="kEzwi6B4QK5POM8SHYto-97" target="kEzwi6B4QK5POM8SHYto-30">
          <mxGeometry width="50" height="50" relative="1" as="geometry">
            <mxPoint x="-120" y="5" as="sourcePoint" />
            <mxPoint x="-70" y="-45" as="targetPoint" />
          </mxGeometry>
        </mxCell>
      </root>
    </mxGraphModel>
  </diagram>
</mxfile>
